<svg width="24" height="24" viewBox="0 0 24 24" fill="none" xmlns="http://www.w3.org/2000/svg">
<path d="M17.75 17.31C18.4583 17.1462 19.0941 16.7565 19.5615 16.1996C20.0288 15.6428 20.3023 14.949 20.3407 14.223C20.3791 13.497 20.1803 12.7783 19.7743 12.1752C19.3683 11.5722 18.7771 11.1176 18.09 10.88C17.4892 10.6883 16.8492 10.6539 16.2312 10.7799C15.6132 10.906 15.0378 11.1883 14.56 11.6C13.6998 12.43 13.0995 13.3735 12.39 14.43C11 16.5 8.09003 18.16 5.56003 16.84C4.94851 16.5276 4.4369 16.05 4.08334 15.4613C3.72979 14.8726 3.54848 14.1966 3.56003 13.51C3.56001 12.9979 3.66136 12.4909 3.85822 12.0182C4.05508 11.5455 4.34356 11.1165 4.70704 10.7558C5.07051 10.3951 5.50179 10.1099 5.976 9.91669C6.45021 9.72348 6.95798 9.62604 7.47003 9.63H8.00003C8.2223 8.92066 8.62385 8.28068 9.16584 7.77195C9.70782 7.26322 10.3719 6.90294 11.0939 6.72597C11.8159 6.54899 12.5713 6.56131 13.2871 6.76172C14.0029 6.96214 14.6549 7.34387 15.18 7.87C15.4256 8.11286 15.6406 8.38488 15.82 8.68" stroke="#151E28" stroke-width="1.2" stroke-linecap="round" stroke-linejoin="round"/>
</svg>
