<svg width="210" height="74" viewBox="0 0 210 74" fill="none" xmlns="http://www.w3.org/2000/svg">
<path d="M30.6308 59.6141L34.8567 55.0041L51.9907 36.3125M79.7138 11L41 55M73.9549 25.1964L48 54.1104M24.4014 40.1964H43.2853" stroke="#E6ECF5" stroke-width="1.6" stroke-linecap="round" stroke-linejoin="round"/>
<path d="M47.4406 60.1513C57.3521 60.1513 65.387 52.1164 65.387 42.2049C65.387 41.4336 65.3384 40.6737 65.2439 39.9281M34.8602 55.0036C31.5481 51.7477 29.4941 47.2162 29.4941 42.2049C29.4941 32.2933 37.529 24.2584 47.4406 24.2584C51.9513 24.2584 56.0734 25.9226 59.2263 28.6704" stroke="#E6ECF5" stroke-width="1.6" stroke-linecap="round" stroke-linejoin="round"/>
<circle cx="41.3622" cy="33.106" r="1.57895" fill="#E6ECF5"/>
<path d="M19.35 58C16.75 58 14.35 57.55 12.15 56.65C9.95 55.7167 8.05 54.45 6.45 52.85C4.88333 51.2167 3.66667 49.35 2.8 47.25C1.93333 45.1167 1.5 42.85 1.5 40.45C1.5 38.05 1.93333 35.8 2.8 33.7C3.66667 31.6 4.88333 29.75 6.45 28.15C8.05 26.55 9.95 25.3 12.15 24.4C14.35 23.4667 16.75 23 19.35 23H22.95V25.2H19.5C17.3333 25.2 15.3 25.6 13.4 26.4C11.5333 27.1667 9.9 28.2333 8.5 29.6C7.1 30.9667 6 32.5833 5.2 34.45C4.43333 36.2833 4.05 38.2833 4.05 40.45C4.05 42.65 4.43333 44.6833 5.2 46.55C6 48.3833 7.1 50 8.5 51.4C9.9 52.7667 11.5333 53.8333 13.4 54.6C15.3 55.3667 17.3333 55.7667 19.5 55.8H22.95V58H19.35ZM101.658 58.65C100.024 58.65 98.5578 58.2667 97.2578 57.5C95.9911 56.7333 94.9745 55.6833 94.2078 54.35C93.4745 52.9833 93.1078 51.4 93.1078 49.6V30.9C93.1078 29.7 92.8245 28.6167 92.2578 27.65C91.6911 26.6833 90.9411 25.9333 90.0078 25.4C89.0745 24.8333 88.0411 24.55 86.9078 24.55C85.7745 24.55 84.7245 24.8333 83.7578 25.4C82.8245 25.9333 82.0745 26.6833 81.5078 27.65C80.9745 28.6167 80.7078 29.7 80.7078 30.9V58H78.2578V31.35C78.2578 29.5833 78.6245 28.0333 79.3578 26.7C80.0911 25.3333 81.1078 24.2667 82.4078 23.5C83.7078 22.7333 85.2078 22.35 86.9078 22.35C88.5745 22.35 90.0578 22.7333 91.3578 23.5C92.6578 24.2667 93.6745 25.3333 94.4078 26.7C95.1745 28.0333 95.5578 29.5833 95.5578 31.35V50.05C95.5578 51.3167 95.8411 52.4333 96.4078 53.4C96.9745 54.3333 97.7078 55.0833 98.6078 55.65C99.5411 56.1833 100.558 56.45 101.658 56.45C102.724 56.45 103.708 56.1833 104.608 55.65C105.508 55.0833 106.224 54.3333 106.758 53.4C107.291 52.4333 107.558 51.3167 107.558 50.05V31.35C107.558 29.5833 107.924 28.0333 108.658 26.7C109.424 25.3333 110.458 24.2667 111.758 23.5C113.058 22.7333 114.558 22.35 116.258 22.35C117.924 22.35 119.408 22.7333 120.708 23.5C122.008 24.2667 123.024 25.3333 123.758 26.7C124.491 28.0333 124.858 29.5833 124.858 31.35V58H122.458V30.9C122.458 29.7 122.174 28.6167 121.608 27.65C121.074 26.6833 120.341 25.9333 119.408 25.4C118.474 24.8333 117.424 24.55 116.258 24.55C115.091 24.55 114.024 24.8333 113.058 25.4C112.124 25.9333 111.374 26.6833 110.808 27.65C110.274 28.6167 110.008 29.7 110.008 30.9V49.6C110.008 51.4 109.641 52.9833 108.908 54.35C108.208 55.6833 107.224 56.7333 105.958 57.5C104.691 58.2667 103.258 58.65 101.658 58.65ZM143.348 58C141.414 58 139.748 57.55 138.348 56.65C136.981 55.75 135.931 54.5833 135.198 53.15C134.464 51.7167 134.098 50.2167 134.098 48.65C134.098 46.85 134.548 45.1667 135.448 43.6C136.381 42.0333 137.764 40.9167 139.598 40.25C137.798 39.4167 136.464 38.2833 135.598 36.85C134.764 35.4167 134.348 33.9 134.348 32.3C134.348 30.6 134.748 29.05 135.548 27.65C136.348 26.25 137.431 25.1333 138.798 24.3C140.164 23.4667 141.681 23.05 143.348 23.05H156.648V25.2H143.648C142.281 25.2 141.081 25.5167 140.048 26.15C139.048 26.7833 138.248 27.65 137.648 28.75C137.081 29.8167 136.798 31 136.798 32.3C136.798 33.5333 137.098 34.6667 137.698 35.7C138.331 36.7333 139.181 37.5667 140.248 38.2C141.314 38.8 142.514 39.1 143.848 39.1H154.698V41.25H144.198C142.531 41.25 141.131 41.6167 139.998 42.35C138.864 43.05 137.998 43.9667 137.398 45.1C136.831 46.2333 136.548 47.4167 136.548 48.65C136.548 49.8833 136.814 51.05 137.348 52.15C137.914 53.2167 138.731 54.1 139.798 54.8C140.898 55.4667 142.231 55.8 143.798 55.8H156.648V58H143.348ZM182.733 58C181.033 58 179.567 57.6667 178.333 57C177.133 56.3 176.217 55.3333 175.583 54.1C174.95 52.8333 174.633 51.3833 174.633 49.75V25.2H163.083V23H188.633V25.2H177.083V50.1C177.083 51.8 177.583 53.1833 178.583 54.25C179.583 55.2833 180.983 55.8 182.783 55.8H184.883V58H182.733Z" fill="#E6ECF5"/>
</svg>
